<?xml version="1.0" standalone="no"?>
<!DOCTYPE svg PUBLIC "-//W3C//DTD SVG 20010904//EN"
 "http://www.w3.org/TR/2001/REC-SVG-20010904/DTD/svg10.dtd">
<svg version="1.0" xmlns="http://www.w3.org/2000/svg"
 width="2000.000000pt" height="2000.000000pt" viewBox="0 0 2000.000000 2000.000000"
 preserveAspectRatio="xMidYMid meet">
<metadata>
Created by potrace 1.11, written by Peter Selinger 2001-2013
</metadata>
<g transform="translate(0.000000,2000.000000) scale(0.100000,-0.100000)"
fill="#000000" stroke="none">
<path d="M1085 19989 c-294 -43 -546 -173 -746 -386 -161 -172 -264 -371 -316
-613 -17 -82 -18 -415 -18 -8990 0 -8575 1 -8908 18 -8990 55 -256 161 -453
342 -636 197 -199 428 -317 705 -359 144 -22 17716 -22 17860 0 262 40 494
154 683 334 206 197 342 469 377 753 8 68 10 2457 8 8958 -3 8510 -4 8868 -21
8940 -59 243 -157 432 -310 596 -178 191 -392 315 -650 377 l-92 22 -8890 1
c-4969 1 -8916 -2 -8950 -7z m16415 -9989 l0 -7500 -7500 0 -7500 0 0 7500 0
7500 7500 0 7500 0 0 -7500z"/>
<path d="M11145 14938 c-3 -7 -6 -1565 -8 -3463 -3 -3771 2 -3477 -57 -3750
-119 -549 -430 -947 -880 -1128 -444 -178 -1098 -165 -1535 31 -100 45 -239
131 -336 207 -132 104 -381 368 -476 504 -2 2 -81 -32 -175 -76 -95 -45 -236
-110 -313 -146 -77 -36 -302 -140 -500 -232 -198 -92 -379 -176 -403 -186 -51
-22 -60 0 91 -234 236 -368 396 -550 687 -784 516 -416 1102 -673 1760 -772
172 -26 609 -37 815 -20 399 33 788 122 1084 248 590 251 1031 620 1357 1135
89 141 233 435 289 593 80 223 140 485 177 775 9 72 12 971 15 3703 l3 3607
-795 0 c-627 0 -797 -3 -800 -12z"/>
</g>
</svg>
